<?xml version="1.0" standalone="no"?><!-- Generator: Gravit.io --><svg xmlns="http://www.w3.org/2000/svg" xmlns:xlink="http://www.w3.org/1999/xlink" style="isolation:isolate" viewBox="0 0 4608 4608" width="4608" height="4608"><defs><clipPath id="_clipPath_4bBZd0FoVTMhLiWF9wuDOBF5TFUasKp0"><rect width="4608" height="4608"/></clipPath></defs><g clip-path="url(#_clipPath_4bBZd0FoVTMhLiWF9wuDOBF5TFUasKp0)"><g><path d=" M 2304 2301.119 L 2304 4608 L 306.183 3454.56 L 306.183 2685.599 L 1638.061 3454.56 L 1638.061 2685.599 L 306.183 1916.639 L 306.183 1147.679 L 2304 2301.119 Z " fill="rgb(42,156,255)"/><path d=" M 2304 -5.762 L 306.183 1147.679 L 2304 2301.119 L 2969.939 1916.639 L 1638.061 1147.679 L 2304 763.199 L 3635.878 1532.159 L 4301.817 1147.679 L 2304 -5.762 Z " fill="rgb(160,255,18)"/><path d=" M 306.183 2685.599 L 972.122 2301.119 L 1638.061 2685.599 L 1638.061 3454.56 L 306.183 2685.599 Z " fill="rgb(21,78,127)"/><path d=" M 4301.817 1147.679 L 4301.817 1916.639 L 3635.878 2301.119 L 3635.878 1532.159 L 4301.817 1147.679 Z " fill="rgb(80,127,9)"/><path d=" M 2969.939 1916.639 L 2969.939 4223.52 L 2304 4608 L 2304 2301.119 L 2969.939 1916.639 Z " fill="rgb(31,117,191)"/><path d=" M 3635.878 2301.119 L 2304 1532.159 L 2304 763.199 L 3635.878 1532.159 L 3635.878 2301.119 Z " fill="rgb(120,191,13)"/><path d=" M 1638.061 1147.679 L 2304 1532.159 L 2304 763.199 L 1638.061 1147.679 Z " fill="rgb(80,127,9)"/></g></g></svg>