<svg xmlns="http://www.w3.org/2000/svg" width="272.692" height="222.769" viewBox="0 0 272.692 222.769">
  <g id="undraw_exams_g4ow" transform="translate(-0.001 -0.022)">
    <path id="Path_76" data-name="Path 76" d="M374.611,177.656v.5q-.044,4.378-.519,8.734a.317.317,0,0,1,0,.053c-.025.241-.053.48-.08.721-.047.408-.1.813-.153,1.221a87.81,87.81,0,0,1-3.2,14.646h0a78.979,78.979,0,0,1-8.351,18.389q-1.642,2.636-3.5,5.1h0c-.66.871-1.334,1.723-2.031,2.561q-.732.879-1.493,1.731l-.316.35a82.315,82.315,0,0,1-8.6,8.173,134.98,134.98,0,0,1-15.833,11.081c-.311.191-.624.38-.938.555a.455.455,0,0,1-.069.042A166.971,166.971,0,0,1,306.475,263.3a104.57,104.57,0,0,1-26.85,7.28c-12.823,1.576-25.8.294-38.547-1.909a250.51,250.51,0,0,1-31.35-7.491l-1.692-.53q-1.315-.419-2.627-.854-7.926-2.622-15.675-5.826a206.046,206.046,0,0,1-36.991-19.862q-2.22-1.493-4.375-3.052-3.013-2.17-5.954-4.467l-1.21-.938a124.363,124.363,0,0,1-14.377-13.2,73.309,73.309,0,0,1-14.427-22.2q-.793-1.973-1.454-4.02l-.042-.136c-.222-.694-.427-1.387-.616-2.109q-.416-1.548-.73-3.135c-.044-.2-.083-.405-.119-.61a52.5,52.5,0,0,1-.874-10.8,49.939,49.939,0,0,1,1.11-9.433h0a42.552,42.552,0,0,1,3.143-9.314h0a33.57,33.57,0,0,1,4.808-7.416h0a28.364,28.364,0,0,1,4.531-4.234,37.007,37.007,0,0,1,9.807-5.038h0c1.626-.583,3.274-1.093,4.93-1.568,1.174-.338,2.353-.66,3.526-.977l3.462-.935c2.22-.6,4.439-1.226,6.625-1.9a74.626,74.626,0,0,0,17.2-7.308c.855-.519,1.726-1.088,2.6-1.7q1.665-1.157,3.285-2.514h0c1.093-.916,2.164-1.895,3.185-2.933.158-.161.314-.322.469-.486.832-.877,1.64-1.8,2.389-2.749.366-.466.721-.941,1.06-1.423.469-.669.913-1.348,1.323-2.048h0A20.961,20.961,0,0,0,185.2,96.059a17.56,17.56,0,0,0-.18-2c-.361-2.45-.707-4.841-.963-7.18-1.071-9.674-.619-18.447,6.642-26.69,9.028-10.246,23.2-12.335,36.095-11.516,37.29,2.358,71.238,23.649,101.071,49q3.87,3.285,7.646,6.659.952.849,1.906,1.709c4.716,4.248,9.361,8.653,13.686,13.373.35.383.7.766,1.043,1.151.211.239.424.474.633.716q2.022,2.289,3.926,4.689a88.822,88.822,0,0,1,8.967,13.594A77.177,77.177,0,0,1,373.54,163.6h0a85.687,85.687,0,0,1,.952,9.2c.047.907.078,1.817.094,2.724v.871C374.614,176.824,374.614,177.234,374.611,177.656Z" transform="translate(-108.55 -48.49)" fill="#10f" opacity="0.1"/>
    <path id="Path_77" data-name="Path 77" d="M382.419,445.85l-4.439,79.012,4.439.058,3.607-80.18Z" transform="translate(-273.113 -321.336)" fill="#3f3d56"/>
    <rect id="Rectangle_8" data-name="Rectangle 8" width="54.933" height="11.93" transform="translate(38.004 164.545)" fill="#6c63ff"/>
    <path id="Path_78" data-name="Path 78" d="M293.238,679.51V687H236.494q-3.013-2.17-5.954-4.467V679.51Z" transform="translate(-196.694 -504.425)" fill="#3f3d56"/>
    <path id="Path_79" data-name="Path 79" d="M264.018,534.686c-.155.719-.358,1.429-.572,2.136a27.85,27.85,0,0,0-1.534,6.187c-.2,2.808.555,6.073-1.387,8.112-.5.527-1.151.921-1.6,1.484a2.6,2.6,0,0,0-.189.277,4.3,4.3,0,0,0-.452,2.22,38.862,38.862,0,0,0,.314,4.813c.658,5.493,1.956,11,.25,16.183a24.936,24.936,0,0,1-1.079,2.638,20.625,20.625,0,0,0-2.011,5.621,35.41,35.41,0,0,0-.15,4.481q-1.315-.419-2.627-.855-7.926-2.622-15.675-5.826c.014-.075.028-.153.039-.228a17.674,17.674,0,0,0-.807-7.4c-1.387-5.1-3.351-10.154-4.514-15.292a38.7,38.7,0,0,1-.918-6.1c-.033-.461-.053-.924-.055-1.387-.014-.6,0-1.21.025-1.82.058-1.218.111-2.663-.863-3.4a7.46,7.46,0,0,0-1.867-.716,10.583,10.583,0,0,1-2.982-2.428,3.909,3.909,0,0,0-3.493-1.026c-6.237,1.429-10.82,6.72-16.624,9.394-.225.105-.449.205-.677.3a9.866,9.866,0,0,0-2.128,1.088,2.425,2.425,0,0,0-.954,1.346,5.035,5.035,0,0,0,.053,1.809,9.235,9.235,0,0,1-.125,2.949,9,9,0,0,1-.3,1.11c-.222.657-.519,1.3-.8,1.942q-2.219-1.493-4.375-3.052-3.013-2.17-5.954-4.467l-1.19-.957a124.37,124.37,0,0,1-14.377-13.2,50.272,50.272,0,0,0,1.856-4.919c.233-.979.319-2,.641-2.949a10.6,10.6,0,0,1,1.531-2.747,37.179,37.179,0,0,1,8.528-8.534c3.437-2.464,7.408-4.439,10.5-7.236a16.571,16.571,0,0,0,3.21-3.8,2.376,2.376,0,0,0,.147-.278,5.754,5.754,0,0,0,.5-1.587c.222-1.243.189-2.608.3-3.8a40.545,40.545,0,0,0,11.411.344c4.425-.5,8.753-1.726,13.178-2.2.333-.039.669-.069,1-.1,1.418-.114,2.838-.139,4.261-.122,1.19,0,2.38.053,3.571.092l13.1.444a12.86,12.86,0,0,1,4.284.635,9.363,9.363,0,0,1,3.917,3.263c.13.178.261.355.383.538a16.924,16.924,0,0,1,2.02,3.992c.053.144.1.277.15.436.125.386.233.774.33,1.168.075.308.142.616.2.927a39.8,39.8,0,0,0,.968,4.592c.033.108.069.216.108.322.58,1.626,1.543,3.082,2.269,4.644a17.25,17.25,0,0,1,1.193,3.532A17.453,17.453,0,0,1,264.018,534.686Z" transform="translate(-156.144 -376.649)" fill="#35323e"/>
    <path id="Path_80" data-name="Path 80" d="M260.893,259c-1.171-.932-2.869-.25-4.239.352a27.209,27.209,0,0,1-3.54,1.279,1.5,1.5,0,0,1-.777.08c-.555-.133-.788-.791-1.2-1.19a2.674,2.674,0,0,0-2.822-.153,6.439,6.439,0,0,1-2.835.832c-1.06-.083-1.981-.866-3.052-.891-1.887-.044-3.471,2.281-5.255,1.665-1.088-.375-1.942-1.789-3.013-1.387-.832.316-.907,1.468-1.409,2.22-.591.877-1.742,1.124-2.727,1.512a7.835,7.835,0,0,0-4.755,8,27.572,27.572,0,0,0,1.7,5.249c1.737,5.074,1.14,10.8,3.329,15.692.277-.261.433-.358.7-.616a6.42,6.42,0,0,0-.375,4.605c.23.768.6,1.484.888,2.236a20.042,20.042,0,0,1,.71,2.58l2.414,10.648a69.143,69.143,0,0,1,2.053,12.585,36.725,36.725,0,0,1-.633,8.268c4.372-.724,8.373-2.663,12.8-2.638a35.7,35.7,0,0,1,4.85.5,99.836,99.836,0,0,0,14.185.963,5.634,5.634,0,0,0,2.175-.305,16.349,16.349,0,0,0,1.687-1.06,7.461,7.461,0,0,1,3.8-.832c5.934-.108,11.652,2.064,17.548,2.83a21.128,21.128,0,0,0,.68-15.847,23.66,23.66,0,0,1-1.454-4.592,23.228,23.228,0,0,1-.067-2.949,21.393,21.393,0,0,0-1.34-7.374,7.582,7.582,0,0,1-.721-2.849,6.474,6.474,0,0,1,1-2.774,19.254,19.254,0,0,1,8.2-8.95l4.281-2.874a42.238,42.238,0,0,0-2.908-10.995,19.551,19.551,0,0,0-7.083-8.517,23.405,23.405,0,0,0-3.346-1.665,15.548,15.548,0,0,0-5.063-1.387,26.843,26.843,0,0,0-5.937.755C273.128,263.045,265.821,262.917,260.893,259Z" transform="translate(-192.848 -200.247)" fill="#47da84"/>
    <path id="Path_81" data-name="Path 81" d="M225.745,488.273l-2.036,2.572-3.84,4.847-4.439,5.6-1.24,1.565h-2.405l-59.563.069-37.3.042h-1.665c-.222-.694-.427-1.387-.616-2.109q-.416-1.548-.73-3.135c-.044-.2-.083-.405-.119-.61l13.533-8.848,5.088-.028h0l15.564-.089h0l8.692-.05h2.583l5.793-.031h0l44.151-.253h0l2.258-.014h.979l2.594-.014,9.652-.056,1.853-.7.136.144Z" transform="translate(-110.89 -365.346)" fill="#3f3d56"/>
    <path id="Path_82" data-name="Path 82" d="M222.572,455.461l-.23.277-1.515,1.784-3.118,3.682-6.539,7.71-57.929-1.479-43.683-1.11c-.044-.2-.083-.405-.119-.61a52.5,52.5,0,0,1-.874-10.8l4.844-2.48,1.11-.572,8.637-4.439,7.58-3.884,19.77,2.569,4.378.569,1.981.255,2.9.377.244.033,45.464,5.9,5.024.652,2.949.383,9.089,1.182Z" transform="translate(-108.55 -333.922)" fill="#504f60"/>
    <path id="Path_83" data-name="Path 83" d="M465.334,534.51l-.047,1.09-.277,6.156L463.517,575.6l-.316,7.316-.832,18.821-.469,10.631-1.692-.53q-1.315-.419-2.627-.854l4.059-73.8.086-1.548,1.787-.555Z" transform="translate(-360.745 -399.654)" fill="#3f3d56"/>
    <path id="Path_84" data-name="Path 84" d="M117.229,534.22l-.125,2.849-.183,4.161q-.793-1.973-1.454-4.02l-.042-.136c-.222-.694-.427-1.387-.616-2.109Z" transform="translate(-113.072 -399.444)" fill="#3f3d56"/>
    <ellipse id="Ellipse_2" data-name="Ellipse 2" cx="12.762" cy="17.201" rx="12.762" ry="17.201" transform="translate(63.945 58.425)" fill="#a1616a"/>
    <ellipse id="Ellipse_3" data-name="Ellipse 3" cx="12.762" cy="17.201" rx="12.762" ry="17.201" transform="translate(63.945 58.425)" opacity="0.1"/>
    <ellipse id="Ellipse_4" data-name="Ellipse 4" cx="17.756" cy="17.756" rx="17.756" ry="17.756" transform="translate(60.754 47.466)" fill="#a1616a"/>
    <path id="Path_85" data-name="Path 85" d="M341.683,183.851a22.734,22.734,0,0,0-3.221.491,26.079,26.079,0,0,0-7.6,3.684,9.043,9.043,0,0,0-2.808,2.347c-1.182,1.762-.724,4-1.387,5.959a17.174,17.174,0,0,1-1.512,2.841,33.817,33.817,0,0,0-3,8.168c-.155.577-.2,1.359.43,1.581a1.734,1.734,0,0,0,1.076-.122c1.989-.658,4.517-.846,5.993.488s1.351,3.7,3.107,4.716c2.011,1.174,5.152-.244,6.978,1.14.782.594,1.065,1.545,1.706,2.261,1.493,1.665,4.364,1.584,6.753,1.248,1.37-.194,3.052-.325,3.884.638.4.455.513,1.079.977,1.49.832.744,2.355.366,3.168-.4a21.321,21.321,0,0,0,1.878-2.652c1.318-1.665,3.634-2.572,4.994-4.217a10.158,10.158,0,0,0,1.792-4.8l1.157-6.212c.469-2.519.9-5.271-.522-7.491-.5-.8-1.229-1.487-1.665-2.314-.291-.555-.455-1.14-.793-1.665a6.912,6.912,0,0,0-1.423-1.437l-2.738-2.267a23.032,23.032,0,0,0-2.994-2.22C352,182.835,346.149,183.435,341.683,183.851Z" transform="translate(-262.82 -145.995)" fill="#464353"/>
    <path id="Path_86" data-name="Path 86" d="M131.848,341.088c-.658.7-1.265,1.454-1.97,2.109a23.874,23.874,0,0,1-1.942,1.554q-1.631,1.221-3.191,2.527a17.869,17.869,0,0,0-2.924,2.922c-1.482,1.989-2.183,4.464-3.571,6.52-1.226,1.823-2.955,3.263-4.2,5.072a7.845,7.845,0,0,0-1.2,2.516,11.693,11.693,0,0,0-.247,2.661,19.759,19.759,0,0,0,.252,4.381,6.644,6.644,0,0,0,2.084,3.784,9.141,9.141,0,0,0,3.72,1.609,3.35,3.35,0,0,0,2.07.058,3.412,3.412,0,0,0,1.2-1.015l3.376-3.884c2.258-2.608,4.605-5.271,7.7-6.8.971-.474,1.995-.832,2.969-1.293a15.988,15.988,0,0,0,8.179-10.5c.277-1.085.455-2.192.635-3.3l.488-3.035a.968.968,0,0,0,0-.463,1,1,0,0,0-.355-.422,58.849,58.849,0,0,1-6.586-6.215,15.21,15.21,0,0,0-1.493-1.709c-.7-.555-.646-.513-1.487,0A17.833,17.833,0,0,0,131.848,341.088Z" transform="translate(-111.47 -257.494)" fill="#a1616a"/>
    <path id="Path_87" data-name="Path 87" d="M262.085,421.724a.522.522,0,1,0-.938.455l-.277.136,8.273,16.957,1.5-.73-8.273-16.968Z" transform="translate(-218.61 -317.932)" fill="#3f3d56"/>
    <path id="Path_88" data-name="Path 88" d="M131.848,341.088c-.658.7-1.265,1.454-1.97,2.109a23.874,23.874,0,0,1-1.942,1.554q-1.631,1.221-3.191,2.527a17.869,17.869,0,0,0-2.924,2.922c-1.482,1.989-2.183,4.464-3.571,6.52-1.226,1.823-2.955,3.263-4.2,5.072a7.845,7.845,0,0,0-1.2,2.516,11.693,11.693,0,0,0-.247,2.661,19.759,19.759,0,0,0,.252,4.381,6.644,6.644,0,0,0,2.084,3.784,9.141,9.141,0,0,0,3.72,1.609,3.35,3.35,0,0,0,2.07.058,3.412,3.412,0,0,0,1.2-1.015l3.376-3.884c2.258-2.608,4.605-5.271,7.7-6.8.971-.474,1.995-.832,2.969-1.293a15.988,15.988,0,0,0,8.179-10.5c.277-1.085.455-2.192.635-3.3l.488-3.035a.968.968,0,0,0,0-.463,1,1,0,0,0-.355-.422,58.849,58.849,0,0,1-6.586-6.215,15.21,15.21,0,0,0-1.493-1.709c-.7-.555-.646-.513-1.487,0A17.833,17.833,0,0,0,131.848,341.088Z" transform="translate(-111.47 -257.494)" opacity="0.04"/>
    <path id="Path_89" data-name="Path 89" d="M473.078,396.586a12.955,12.955,0,0,1-.832,5.208,2.774,2.774,0,0,1-1.543,1.617,3.591,3.591,0,0,1-1.357.05,49.014,49.014,0,0,0-16.227,1.287c1.415-2.83.6-6.223.993-9.364.108-.857.305-1.7.38-2.561.277-3.052-1.029-6.015-1.629-9.028a20.2,20.2,0,0,1,0-7.9,5.273,5.273,0,0,1,.68-1.9,4.46,4.46,0,0,1,1.559-1.357,13.087,13.087,0,0,1,7.421-1.257c1.7.114,5.11-.047,6.528,1,1.551,1.146,2.042,4.994,2.461,6.772a57.293,57.293,0,0,1,1.276,8.287A89.02,89.02,0,0,1,473.078,396.586Z" transform="translate(-357.055 -281.741)" fill="#a1616a"/>
    <path id="Path_90" data-name="Path 90" d="M59.98,436.03l9.988,6.659,44.945-1.665L85.227,436.03Z" transform="translate(-43.338 -315.043)" fill="#fff"/>
    <path id="Path_91" data-name="Path 91" d="M185.927,286.662c-1.64,1.445-3.03,3.149-4.583,4.689a63.06,63.06,0,0,1-6.964,5.7,5.183,5.183,0,0,1,3.607,3.634c.105.408.158.832.277,1.232a6.73,6.73,0,0,0,1.543,2.5c2.813,3.171,6.75,5.518,8.409,9.433a.871.871,0,0,0,.333.472.73.73,0,0,0,.43.05c1.5-.158,2.65-1.368,3.607-2.544a26.594,26.594,0,0,0,4.716-8.3,14.8,14.8,0,0,0,.069-9.433,24.144,24.144,0,0,0-2.183-4.253q-1.079-1.795-2.153-3.585c-.375-.63-.852-1.909-1.587-2.219C189.861,283.352,186.945,285.644,185.927,286.662Z" transform="translate(-156.115 -218.58)" fill="#47da84"/>
    <path id="Path_92" data-name="Path 92" d="M462.171,343.835l2.361,5.549a17.154,17.154,0,0,0-15.509,2.15,8.712,8.712,0,0,0-3.188,3.709,1.62,1.62,0,0,1-1.606-.63,3.221,3.221,0,0,1-.594-1.7c-.219-2.131.588-4.22,1.387-6.212a8.945,8.945,0,0,1,1.415-2.641,8.265,8.265,0,0,1,2.414-1.728,53.744,53.744,0,0,1,8.753-3.867c1.276-.413,2.614-.405,3.329.788C461.763,340.678,461.521,342.32,462.171,343.835Z" transform="translate(-350.642 -257.822)" fill="#47da84"/>
    <path id="Path_93" data-name="Path 93" d="M133.918,413.529c.591.472,1.11,1.029,1.717,1.479a12.263,12.263,0,0,0,2.042,1.146l2.736,1.315a15.329,15.329,0,0,0,2.65,1.076c1.171.313,2.4.344,3.576.635,1.484.366,2.841,1.129,4.3,1.57a4.975,4.975,0,0,0,4.395-.405c.763-.574,1.34-1.523,2.286-1.665a3.026,3.026,0,0,1,1.742.5l7.119,3.743a5.424,5.424,0,0,1,2.478,2.028c.5.963.164,2.425-.893,2.674a9.751,9.751,0,0,1-1.11.064.87.87,0,0,0-.816.63,1.265,1.265,0,0,0,.175.652,2.728,2.728,0,0,1,.042,2.319,1.659,1.659,0,0,1-2.014.832c.125,1.074-1.043,1.826-2.084,2.111-2.625.719-5.407.277-8.09-.178a11.089,11.089,0,0,1-3.085-.832c-.461-.225-.888-.513-1.354-.721a9.662,9.662,0,0,0-4.131-.469c-6.467.114-12.879-1.085-19.238-2.278a9.306,9.306,0,0,1-3.4-1.11c-1.942-1.265-2.663-3.862-2.344-6.159a18.493,18.493,0,0,1,2.63-6.4l1.484-2.616a3.369,3.369,0,0,1,.8-1.054C127.717,410.751,132.048,412.025,133.918,413.529Z" transform="translate(-117.218 -310.866)" fill="#a1616a"/>
    <path id="Path_94" data-name="Path 94" d="M133.918,413.529c.591.472,1.11,1.029,1.717,1.479a12.263,12.263,0,0,0,2.042,1.146l2.736,1.315a15.329,15.329,0,0,0,2.65,1.076c1.171.313,2.4.344,3.576.635,1.484.366,2.841,1.129,4.3,1.57a4.975,4.975,0,0,0,4.395-.405c.763-.574,1.34-1.523,2.286-1.665a3.026,3.026,0,0,1,1.742.5l7.119,3.743a5.424,5.424,0,0,1,2.478,2.028c.5.963.164,2.425-.893,2.674a9.751,9.751,0,0,1-1.11.064.87.87,0,0,0-.816.63,1.265,1.265,0,0,0,.175.652,2.728,2.728,0,0,1,.042,2.319,1.659,1.659,0,0,1-2.014.832c.125,1.074-1.043,1.826-2.084,2.111-2.625.719-5.407.277-8.09-.178a11.089,11.089,0,0,1-3.085-.832c-.461-.225-.888-.513-1.354-.721a9.662,9.662,0,0,0-4.131-.469c-6.467.114-12.879-1.085-19.238-2.278a9.306,9.306,0,0,1-3.4-1.11c-1.942-1.265-2.663-3.862-2.344-6.159a18.493,18.493,0,0,1,2.63-6.4l1.484-2.616a3.369,3.369,0,0,1,.8-1.054C127.717,410.751,132.048,412.025,133.918,413.529Z" transform="translate(-117.218 -310.866)" opacity="0.04"/>
    <path id="Path_95" data-name="Path 95" d="M327.919,433.262c-1.445.682-3.1.749-4.614,1.273a27.323,27.323,0,0,0-4.176,2.236c-3.607,2.014-7.768,2.774-11.855,3.5a34.587,34.587,0,0,1-7.491.782c-3.379-.144-6.625-1.271-9.9-2.12s-6.767-1.421-10.01-.466a11.267,11.267,0,0,0-7.352,7.055,16.25,16.25,0,0,0-.644,6.248c.682.5,1.637-.194,2.009-.957s.574-1.7,1.3-2.142c1.251.424,1.556,2.092,2.589,2.916a4.674,4.674,0,0,0,2.322.769l4.217.6c1.015.144,2.195.241,2.93-.474.358-.347.555-.832.882-1.2a3.272,3.272,0,0,1,2.791-.771c3.118.311,6.043,2.333,9.139,1.853a17.329,17.329,0,0,0,3.071-.977c6.018-2.125,12.7-.832,18.966-2.05a42.328,42.328,0,0,0,6.961-2.15,14.077,14.077,0,0,0,3.537-1.753,7.446,7.446,0,0,0,2.874-6.606,7.552,7.552,0,0,0-2.666-4.894,9.436,9.436,0,0,0-1.715-1.473C329.964,431.964,328.868,432.815,327.919,433.262Z" transform="translate(-226.529 -325.805)" fill="#a1616a"/>
    <g id="Group_1" data-name="Group 1" transform="translate(59.79 42.15)" opacity="0.1">
      <path id="Path_96" data-name="Path 96" d="M357.549,230.223c-.463-.411-.577-1.035-.977-1.49-.832-.963-2.514-.832-3.884-.638-2.389.336-5.271.413-6.753-1.248-.641-.716-.924-1.665-1.706-2.261-1.826-1.387-4.966.033-6.978-1.14-1.756-1.024-1.642-3.4-3.107-4.716s-4-1.146-5.993-.488a1.734,1.734,0,0,1-1.076.122c-.63-.222-.585-1-.43-1.581a33.824,33.824,0,0,1,3-8.168,17.159,17.159,0,0,0,1.512-2.841c.6-1.759.294-3.748,1.085-5.413a7.471,7.471,0,0,0-2.189,1.942c-1.182,1.762-.724,4-1.387,5.959a17.16,17.16,0,0,1-1.512,2.841,33.821,33.821,0,0,0-3,8.168c-.155.577-.2,1.359.43,1.581a1.734,1.734,0,0,0,1.077-.122c1.989-.658,4.517-.846,5.993.488s1.351,3.7,3.107,4.716c2.011,1.174,5.152-.244,6.978,1.14.782.594,1.065,1.545,1.706,2.261,1.493,1.665,4.364,1.584,6.753,1.248,1.371-.194,3.052-.325,3.884.638.4.455.513,1.079.977,1.49.832.744,2.355.366,3.168-.4a8.416,8.416,0,0,0,1.326-1.814A2.064,2.064,0,0,1,357.549,230.223Z" transform="translate(-324.055 -200.36)"/>
      <path id="Path_97" data-name="Path 97" d="M461.707,290.439a7.883,7.883,0,0,0-.5.719,15.04,15.04,0,0,0,2.991-2.439,5.884,5.884,0,0,0,.555-.8A14.571,14.571,0,0,0,461.707,290.439Z" transform="translate(-423.158 -263.627)"/>
    </g>
    <path id="Path_98" data-name="Path 98" d="M556.48,446.53l.832,79.625,3.884-.555-.832-79.07Z" transform="translate(-402.09 -322.63)" fill="#3f3d56"/>
    <path id="Path_99" data-name="Path 99" d="M640.48,498.53l.832,79.625,3.884-.555-.832-79.07Z" transform="translate(-462.786 -360.203)" fill="#3f3d56"/>
    <path id="Path_100" data-name="Path 100" d="M999.317,587.229h0L999.3,585.7v-.91l-.147-14.005-.23-21.9L998.884,547H995l.02,1.82.122,11.727.053,5.077h0l.044,4.112.072,7.108.045,4.192h0v.444l.058,5.51.05,4.858.316-.35q.763-.852,1.493-1.731Z" transform="translate(-749.064 -408.678)" fill="#3f3d56"/>
    <path id="Path_101" data-name="Path 101" d="M619.2,545.03l-2.219,3.318,2.219,15.118,18.866,5.163h30.518l18.311,1.107,8.723-5.971-1.509-10.254-6.658-8.481Z" transform="translate(-445.805 -393.802)" fill="#6c63ff"/>
    <path id="Path_102" data-name="Path 102" d="M722.039,605.48l-1.11,9.216s-5.826,18.07,41.061,16.963,38.841-4.794,38.841-4.794l-.277-10.692s1.634,5.06-22.2,4.375-46.055-2.9-46.055-2.9S723.981,619.122,722.039,605.48Z" transform="translate(-550.864 -450.934)" fill="#3f3d56"/>
    <path id="Path_103" data-name="Path 103" d="M837.088,304.512a13.405,13.405,0,0,0-6.056,6.19,39.96,39.96,0,0,0-2.872,8.323,74.1,74.1,0,0,0-2,9.089,27.527,27.527,0,0,0,2.33,16.136c2.514,4.913,7.158,8.878,12.6,9.824a23.182,23.182,0,0,0,6.381.075,51.88,51.88,0,0,0,11.267-2.483c3.815-1.29,7.785-3.277,9.483-6.936a15.512,15.512,0,0,0,1.021-6.878,73.168,73.168,0,0,0-2.86-18.808,16.014,16.014,0,0,0-2.2-5.06,15.51,15.51,0,0,0-4.092-3.607C853.6,306.007,845.07,300.883,837.088,304.512Z" transform="translate(-626.85 -232.576)" fill="#fbbebe"/>
    <path id="Path_104" data-name="Path 104" d="M837.088,304.512a13.405,13.405,0,0,0-6.056,6.19,39.96,39.96,0,0,0-2.872,8.323,74.1,74.1,0,0,0-2,9.089,27.527,27.527,0,0,0,2.33,16.136c2.514,4.913,7.158,8.878,12.6,9.824a23.182,23.182,0,0,0,6.381.075,51.88,51.88,0,0,0,11.267-2.483c3.815-1.29,7.785-3.277,9.483-6.936a15.512,15.512,0,0,0,1.021-6.878,73.168,73.168,0,0,0-2.86-18.808,16.014,16.014,0,0,0-2.2-5.06,15.51,15.51,0,0,0-4.092-3.607C853.6,306.007,845.07,300.883,837.088,304.512Z" transform="translate(-626.85 -232.576)" opacity="0.05"/>
    <path id="Path_105" data-name="Path 105" d="M791.886,371.36a12.6,12.6,0,0,0,2.774,2.774c2.641,1.826,6.032,2.072,9.239,2.172,2.575.078,5.527-.069,7.141-2.078a8.314,8.314,0,0,0,1.348-3.182,141.177,141.177,0,0,0,3.857-21.021l7.346.025c3.179,13.614,2.919,27.766,2.641,41.746l-.4,20.386-4.733-.5c-11.239-1.19-22.495-2.38-33.795-2.586a193.319,193.319,0,0,0-19.842.655L777.767,379.1c1.337-3.984,2.688-8.021,3-12.207.452-6.073-1.251-12.485,1.11-18.1a2.2,2.2,0,0,1,.857-1.157,2.434,2.434,0,0,1,1.468-.114c.932.125,3.781,0,4.458.6,1,.866.339,1-.014,2.392a29.187,29.187,0,0,0-1.218,7.41A21.886,21.886,0,0,0,791.886,371.36Z" transform="translate(-584.652 -264.503)" fill="#6c63ff"/>
    <path id="Path_106" data-name="Path 106" d="M963.05,413.639h0q1.856-2.464,3.5-5.1c-.555-1.187-1.165-2.347-1.651-3.559a35.763,35.763,0,0,1-1.593-5.785q-.216-1-.43-2c-1.554-7.244-3.013-14.591-3.315-21.934q-.042-.915-.053-1.831v-2.28c.033-1.665.139-3.343.33-5.013.036-.327.078-.655.122-.982a1.407,1.407,0,0,1,.028-.214l18.866-.688h0l1.587-.058a5.813,5.813,0,0,0,3.143-.719c1.512-1.038,1.689-3.166,1.665-4.994a74.126,74.126,0,0,0-1.565-13.747c-.716-3.4-1.737-6.878-4.028-9.491-1.881-2.147-4.605-3.709-5.585-6.381a28.833,28.833,0,0,0-.927-3.032,9.444,9.444,0,0,0-1.986-2.378,33.107,33.107,0,0,1-6.353-8.8,27.8,27.8,0,0,0-3.809-6.326c-.072-.081-.144-.155-.219-.228-1.248-1.235-2.677-1.776-4.37-.935a5.6,5.6,0,0,0-.866.538h0a10.546,10.546,0,0,0-1.645,1.565,37.453,37.453,0,0,0-4.475,6.381,35.454,35.454,0,0,0-2.286,4.994A34.407,34.407,0,0,0,945.9,324.8c-.239,1.046-.427,2.1-.577,3.163a76.929,76.929,0,0,0-.477,12.08c.083,3.707.247,7.421.583,11.114q.125,1.34.277,2.677.305,2.644.755,5.271c.119.669.241,1.337.377,2,.033.178.069.355.105.53l.017.075a45.063,45.063,0,0,1,.852,4.692q.033.3.05.591a22.8,22.8,0,0,1-.022,2.722c-.064,1.071-.164,2.139-.213,3.21a5.174,5.174,0,0,1-.02.555c-.014.541,0,1.082,0,1.623a25.745,25.745,0,0,0,.461,3.854,24.928,24.928,0,0,0,2.4,6.781c.105.2.214.4.322.591,1.407,2.514,3.182,4.819,4.483,7.391a31.9,31.9,0,0,1,2.5,7.272q.277,1.246.527,2.5c.258,1.332.488,2.675.724,4.017.022.133.047.277.072.4.313,1.781.644,3.554,1.068,5.294.247,1.013.524,2.011.849,2.994Z" transform="translate(-712.798 -235.089)" fill="#464353"/>
    <path id="Path_107" data-name="Path 107" d="M863.235,577.931c0,.25-.016.5-.028.752a35.539,35.539,0,0,1-.336,3.637,23.66,23.66,0,0,1-1.2,4.825,16.27,16.27,0,0,1-1.432,2.944,13.573,13.573,0,0,1-1.781,2.294c-1.665,1.731-4.062,2.283-6.381,3.013A15.709,15.709,0,0,0,849,596.653c-.175.1-.347.2-.513.313l-2.9,1.923a8.683,8.683,0,0,0-2.45,2.1,4.479,4.479,0,0,0-.277.469,10.624,10.624,0,0,0-.855,2.563c-1.509,6.287-3.021,12.579-4.056,18.96-.069.422-.136.846-.208,1.271l-.025.133a.7.7,0,0,0-.045-.092,166.966,166.966,0,0,1-23.055,11.783l-1.723-14.427a17.454,17.454,0,0,1-.178-3.546c.164-1.867.924-3.637,1.129-5.5a9.368,9.368,0,0,0-.99-5.291,5.786,5.786,0,0,1-.813-1.962,1.22,1.22,0,0,1,1.043-1.426,2.564,2.564,0,0,0,.436-2.289,6.65,6.65,0,0,0-.388-1.268c-.472-1.16-1.068-2.422-.663-3.607a1.346,1.346,0,0,0,.139-.694.109.109,0,0,0,0-.044c-.094-.311-.463-.447-.655-.71-.361-.491,0-1.16.222-1.726a6.58,6.58,0,0,0,.372-1.889c.031-.358.053-.719.092-1.074a10.83,10.83,0,0,1,.258-1.426,11.256,11.256,0,0,1,4.558-6.525c1.079-.727,2.281-1.257,3.382-1.942a30.965,30.965,0,0,0,3.224-2.5q3.665-3.052,7.621-5.754a96.265,96.265,0,0,1,8.8-5.344q.971-.524,1.942-1.021,1.057-.555,2.128-1.052c2.286-1.09,4.88-.682,7.407.044,1.06.3,2.106.663,3.116.99a14.423,14.423,0,0,1,2.83,1.271,10.435,10.435,0,0,1,4.858,5.71.291.291,0,0,1,0,.047A14.53,14.53,0,0,1,863.235,577.931Z" transform="translate(-616.69 -421.248)" fill="#47da84"/>
    <path id="Path_108" data-name="Path 108" d="M863.235,577.931c0,.25-.016.5-.028.752a35.539,35.539,0,0,1-.336,3.637,23.66,23.66,0,0,1-1.2,4.825,16.27,16.27,0,0,1-1.432,2.944,13.573,13.573,0,0,1-1.781,2.294c-1.665,1.731-4.062,2.283-6.381,3.013A15.709,15.709,0,0,0,849,596.653c-.175.1-.347.2-.513.313l-2.9,1.923a8.683,8.683,0,0,0-2.45,2.1,4.479,4.479,0,0,0-.277.469,10.624,10.624,0,0,0-.855,2.563c-1.509,6.287-3.021,12.579-4.056,18.96-.069.422-.136.846-.208,1.271l-.025.133a.7.7,0,0,0-.045-.092,166.966,166.966,0,0,1-23.055,11.783l-1.723-14.427a17.454,17.454,0,0,1-.178-3.546c.164-1.867.924-3.637,1.129-5.5a9.368,9.368,0,0,0-.99-5.291,5.786,5.786,0,0,1-.813-1.962,1.22,1.22,0,0,1,1.043-1.426,2.564,2.564,0,0,0,.436-2.289,6.65,6.65,0,0,0-.388-1.268c-.472-1.16-1.068-2.422-.663-3.607a1.346,1.346,0,0,0,.139-.694.109.109,0,0,0,0-.044c-.094-.311-.463-.447-.655-.71-.361-.491,0-1.16.222-1.726a6.58,6.58,0,0,0,.372-1.889c.031-.358.053-.719.092-1.074a10.83,10.83,0,0,1,.258-1.426,11.256,11.256,0,0,1,4.558-6.525c1.079-.727,2.281-1.257,3.382-1.942a30.965,30.965,0,0,0,3.224-2.5q3.665-3.052,7.621-5.754a96.265,96.265,0,0,1,8.8-5.344q.971-.524,1.942-1.021,1.057-.555,2.128-1.052c2.286-1.09,4.88-.682,7.407.044,1.06.3,2.106.663,3.116.99a14.423,14.423,0,0,1,2.83,1.271,10.435,10.435,0,0,1,4.858,5.71.291.291,0,0,1,0,.047A14.53,14.53,0,0,1,863.235,577.931Z" transform="translate(-616.69 -421.248)" opacity="0.1"/>
    <path id="Path_109" data-name="Path 109" d="M899.085,446.724a.522.522,0,1,0-.938.455l-.277.136,8.273,16.957,1.5-.73-8.273-16.968Z" transform="translate(-678.882 -335.996)" fill="#3f3d56"/>
    <ellipse id="Ellipse_5" data-name="Ellipse 5" cx="17.756" cy="17.756" rx="17.756" ry="17.756" transform="translate(212.79 57.454)" fill="#fbbebe"/>
    <path id="Path_110" data-name="Path 110" d="M917.8,195.412a23.58,23.58,0,0,0-.627-4.187c-1.043-4.486-2.949-8.9-6.231-12.124a24.282,24.282,0,0,0-.724-2.328.435.435,0,0,0-.02-.055,26.05,26.05,0,0,0-4.189-7.427c-1.04-1.293-2.389-2.569-4.048-2.619a3.282,3.282,0,0,1-1.387-.15,2.5,2.5,0,0,1-.774-.794,7.266,7.266,0,0,0-7.036-2.633l-.172.036c-.1.019-.194.042-.277.067s-.233.067-.35.1q.192.316.375.641.494.88.915,1.8.35.766.647,1.556c-2.841.325-5.155,2.342-7.269,4.261l-4.977,4.517a.219.219,0,0,0-.025.025l-.144.139c-.036.036-.072.072-.105.111a.234.234,0,0,0-.036.039c-.042.044-.08.092-.119.139a2.094,2.094,0,0,0-.186.277,1.014,1.014,0,0,0-.072.13.278.278,0,0,0-.02.042,1.026,1.026,0,0,0-.047.117.04.04,0,0,0,0,.017.648.648,0,0,0-.019.069.833.833,0,0,0,.047.588l3.282.036h.386c.017.438.031.879.047,1.318a18.722,18.722,0,0,0-1.5,1.248,16.287,16.287,0,0,0-1.462,1.543,21.292,21.292,0,0,0-4.661,12.845v1.7c0,.277.025.555.047.832a2.078,2.078,0,0,0,.278,1.029.937.937,0,0,0,.078.1,1.916,1.916,0,0,0,.588.433l.239.117h0c.119.058.233.114.344.178,1.046.591,1.665,1.731,2.616,2.464.055.042.111.083.166.119l.125.083.078.05.105.061a2.274,2.274,0,0,0,.214.114h0l.133.067h.022c.111.05.222.1.336.139l.158.055.047.017c.044.014.091.031.139.042q.142.042.278.075l.277.061c.108.019.219.039.33.053l.164.022.166.017q.4.036.8.042h0a19.964,19.964,0,0,0,2.516-.175l7.08-.832a15.256,15.256,0,0,1,4.83-.044,31.845,31.845,0,0,1,3.884,1.368c.294.1.588.2.885.277.108.031.219.064.33.092l.153.039.355.086c.128.031.255.061.383.086.18.039.358.072.538.105.122.025.247.044.372.067h.025l.355.055h.086l.264.036c.128.019.255.036.386.05q.425.053.849.092c.458.044.918.078,1.387.105l.461.028.461.022,1.387.061h.255a7.158,7.158,0,0,0,1.726-.089c.1-.019.2-.042.294-.069s.178-.055.277-.089a4.75,4.75,0,0,0,2.328-2.3c.111-.208.214-.416.308-.63s.18-.43.258-.646c.1-.277.18-.541.252-.818.022-.075.042-.15.058-.228s.055-.23.078-.347c.069-.319.122-.641.161-.966a2.958,2.958,0,0,1,.036-.311c.025-.277.044-.535.055-.807v-.622C917.817,195.995,917.8,195.7,917.8,195.412Zm-7.114-16.563c-.225-.211-.455-.413-.688-.6a2.871,2.871,0,0,1,.685.6Z" transform="translate(-663.816 -131.194)" fill="#464353"/>
    <path id="Path_111" data-name="Path 111" d="M734.074,306.859c-2.089-.258-4.162-1.174-6.223-.724a8.624,8.624,0,0,0-3.432,1.9,41.73,41.73,0,0,0-9.646,11.028,5.822,5.822,0,0,0-.891,2.086,5.531,5.531,0,0,0,.383,2.575c1.9,5.607,5.957,10.29,7.8,15.914,1.942,5.915,1.268,12.379-.164,18.439a77.058,77.058,0,0,1-8.556,21.28,12.135,12.135,0,0,1-1.97,2.7c-1.01.971-2.367,1.665-2.966,2.935a13.167,13.167,0,0,0-.555,1.781c-.555,1.665-1.9,3.091-2.028,4.847a11.058,11.058,0,0,0,.924,3.884,10.7,10.7,0,0,1-.2,6.686c-1.406,3.856-5.085,7.363-4.017,11.328,2.383-.685,5.024-1.576,6.148-3.787a6.748,6.748,0,0,1,1.262-2.286c1.334-1.135,3.607-.108,5.024-1.151,1.071-.794,1.11-2.419.633-3.668s-1.3-2.347-1.665-3.632c-.638-2.317.383-4.766.194-7.161-.089-1.11-.43-2.172-.455-3.277a7.7,7.7,0,0,1,2.719-5.618,22.6,22.6,0,0,1,5.449-3.374l7.258-3.607c2.633-1.3,5.518-2.894,6.381-5.7a11.547,11.547,0,0,0,.347-3.271c.247-16.788,4.453-33.237,8.634-49.5a61.306,61.306,0,0,1,2.275-7.469c.965-2.419,2.855-4.361,3.818-6.609C744.977,302.756,739.875,307.586,734.074,306.859Z" transform="translate(-537.606 -232.626)" fill="#464353"/>
    <path id="Path_112" data-name="Path 112" d="M807.7,586.029c.641,3.884,1.032,7.852,1.337,11.8A134.988,134.988,0,0,1,793.2,608.91c-.311.191-.624.38-.938.555l-.025.133a.708.708,0,0,0-.044-.092,4.176,4.176,0,0,0-2.086-2.059q-3.071-6.45-6.137-12.9a33.884,33.884,0,0,1-2.774-7.172,1.1,1.1,0,0,0-.033-.161c-.422-1.942-.519-3.959-.8-5.926a17.115,17.115,0,0,0-.757-3.313c-.333-.957-.791-1.887-1.2-2.821a9.4,9.4,0,0,1-.938-3.568,2.332,2.332,0,0,0-.169-1.165,3.024,3.024,0,0,0-.757-.732,2.888,2.888,0,0,1-.932-2.638c-1.665.086-2.6,1.876-3.271,3.393a18.5,18.5,0,0,1-2.375,4.162,7.892,7.892,0,0,1-2.63,2.189c-.092.044-.183.089-.277.128-2.317,1.021-5.022.66-7.532.2a14.119,14.119,0,0,1-6.228-2.267l-.189-.15a8.148,8.148,0,0,1-1.387-1.482,16.123,16.123,0,0,1-2.5-7.213c-.033-.239-.067-.477-.1-.716a26.688,26.688,0,0,1-.208-5.4c.033-.444.081-.888.139-1.329.039-.278.08-.577.128-.866a.075.075,0,0,1,0-.025c.072-.458.15-.918.228-1.387a12.751,12.751,0,0,1,1.387-4.542,8.6,8.6,0,0,1,2.042-2.186c.3-.236.608-.461.918-.677.5-.35,1.024-.683,1.551-1a26.8,26.8,0,0,1,4.162-2.025c.344-.133.694-.258,1.043-.377a8.187,8.187,0,0,1,4.239-.336,22.325,22.325,0,0,0,3.8.222,95.664,95.664,0,0,0,9.771-1.088c4.511-.555,9.358-.621,13.292,1.665.189.108.372.222.555.341a16.437,16.437,0,0,1,4.769,5.041c.278.419.519.849.757,1.285a32.7,32.7,0,0,1,1.49,3.08,3.828,3.828,0,0,1,.413,1.665,2.152,2.152,0,0,1-.044.327c-.075.394-.225.777-.277,1.176-.175,1.512,1.11,2.774,1.59,4.214a20.669,20.669,0,0,1,.452,2.93,15.236,15.236,0,0,0,1.543,3.884,48.59,48.59,0,0,1,2.469,6.206c.483,1.479.9,2.98,1.26,4.494q.178.73.336,1.462C807.231,583.391,807.478,584.706,807.7,586.029Z" transform="translate(-571.219 -406.478)" fill="#47da84"/>
    <path id="Path_113" data-name="Path 113" d="M666.342,459.289v1.942l-.358-.006-.4-.006-4.461-.056-10.992-.144-3.085-.039-.8-.011-4.63-.058-6.525-.086-13.844-.18-24.023-.311-8.67-.111-3.479-.044-3.2-.042-1.995-.028-1.889-.025-14.008-.18-3.884-.05-.846-.011-.549-1.418-3.992-10.3-.73-1.881.555-2.22,2.5,1.665,1.537.191,25.305,3.146,4.75.591,10.071,1.254,9.866,1.226,3.867.48,22.886,2.847,6.395.8,5.294.658,18.821,2.342Z" transform="translate(-400.284 -320.823)" fill="#3f3d56"/>
    <path id="Path_114" data-name="Path 114" d="M555.98,444.03l4.994,13.04,106.813,2.22V445.14Z" transform="translate(-401.729 -320.823)" fill="#504f60"/>
    <path id="Path_115" data-name="Path 115" d="M575.98,496.03l.832,79.625,3.884-.555-.832-79.07Z" transform="translate(-416.18 -358.396)" fill="#3f3d56"/>
    <path id="Path_116" data-name="Path 116" d="M1053.443,551.26h-.4a87.817,87.817,0,0,1-3.2,14.646l-1.262-14.7-.052-.627,4.666-.538.155-.017Z" transform="translate(-787.743 -410.86)" fill="#3f3d56"/>
    <path id="Path_117" data-name="Path 117" d="M764.248,458.3l-40.644.832-12.623-4.162,33.847-1.942Z" transform="translate(-513.726 -327.326)" fill="#fff"/>
    <path id="Path_118" data-name="Path 118" d="M821.842,457.794a2.724,2.724,0,0,0-1.11.791,2.93,2.93,0,0,0-.413,1.26l-.683,4.07a1.8,1.8,0,0,0,.053,1.129c.178.341.693.519.952.236a3.655,3.655,0,0,0,.5,2.294,1.6,1.6,0,0,0,2.089.538,1.354,1.354,0,0,0,2.039.316c-.394.133-.422.735-.142,1.04a1.811,1.811,0,0,0,1.132.452,27.685,27.685,0,0,0,14.4-1.812c.43-.178-.7-5.479-.816-6.023-.277-1.279-.416-2.841-1.5-3.7-2.58-2.059-7.163-2.464-10.307-2.219A17.756,17.756,0,0,0,821.842,457.794Z" transform="translate(-622.305 -342.999)" fill="#fbbebe"/>
    <path id="Path_119" data-name="Path 119" d="M898.588,454.031c-10.035.191-20.278.355-29.855-2.65a20.254,20.254,0,0,1-.183,10.784l46.92,3.884c1.989.164,10.237,1.1,12.177.627s-16.272-6.467-15.537-8.323c2.023-5.113,8.8-8.11,3.917-8.3C909.869,449.809,904.794,453.915,898.588,454.031Z" transform="translate(-657.696 -338.62)" opacity="0.1"/>
    <path id="Path_120" data-name="Path 120" d="M899.588,456.031c-10.035.191-20.278.355-29.855-2.65a20.255,20.255,0,0,1-.183,10.784l46.92,3.884c1.989.164,10.237,1.11,12.177.627s1.484-2.86,2.219-4.716c2.023-5.113-8.959-11.716-13.839-11.908C910.869,451.809,905.794,455.915,899.588,456.031Z" transform="translate(-658.419 -340.066)" fill="#464353"/>
    <path id="Path_121" data-name="Path 121" d="M871.06,464.794a2.717,2.717,0,0,1,1.11.791,2.971,2.971,0,0,1,.416,1.26l.682,4.07a1.819,1.819,0,0,1-.053,1.129c-.178.341-.7.519-.952.236a3.672,3.672,0,0,1-.5,2.294,1.6,1.6,0,0,1-2.092.538,1.354,1.354,0,0,1-2.039.316c.394.133.424.735.144,1.04a1.821,1.821,0,0,1-1.135.452,27.674,27.674,0,0,1-14.4-1.812c-.43-.178.7-5.479.816-6.023.277-1.279.416-2.841,1.5-3.7,2.577-2.059,7.164-2.464,10.307-2.219A17.756,17.756,0,0,1,871.06,464.794Z" transform="translate(-645.846 -348.057)" fill="#fbbebe"/>
    <path id="Path_122" data-name="Path 122" d="M672.575,379.715a17.765,17.765,0,0,0-2.439,3.784c-1.135,2.641-.968,5.632-.78,8.5a4.958,4.958,0,0,0,.555,2.372,4.006,4.006,0,0,0,1.448,1.235,20.5,20.5,0,0,0,7.962,2.078q6.309.7,12.662.852c10.493.255,21.146-.6,31.367,1.776a7.857,7.857,0,0,1-.555-6.659,22.672,22.672,0,0,1,3.4-5.979c-4.678-1.482-9.694.832-14.593.6-5.03-.236-9.685-3.143-14.721-3.141a13.393,13.393,0,0,1-3.235-.125,2.694,2.694,0,0,1-2.167-2.133c1.343.3,2.616-.846,3.171-2.106s.655-2.683,1.193-3.951c1.34-3.154,4.96-4.617,7.213-7.213a1.767,1.767,0,0,0,.125-2.68c-1.873-2.5-4.694-3.884-7.039-5.826-.816-.677-2.461-3.229-3.376-3.465-1.7-.436-3.138,2.017-4.242,3.213Q680.169,369.935,672.575,379.715Z" transform="translate(-513.669 -271.815)" fill="#464353"/>
    <path id="Path_123" data-name="Path 123" d="M882.39,434.81a9.182,9.182,0,0,1,1.856,1.839,3.168,3.168,0,0,1,.58,2.48,3.706,3.706,0,0,1,2.311-3.837Z" transform="translate(-667.697 -327.614)" opacity="0.07"/>
    <g id="Group_2" data-name="Group 2" transform="translate(213.164 31.902)" opacity="0.1">
      <path id="Path_124" data-name="Path 124" d="M932.806,165.959a24.111,24.111,0,0,0-1.126-2.539,6.8,6.8,0,0,0-.81.208,23.48,23.48,0,0,1,1.284,2.45A4.651,4.651,0,0,1,932.806,165.959Z" transform="translate(-915.89 -163.42)"/>
      <path id="Path_125" data-name="Path 125" d="M995.87,212c.075.061.147.13.219.194a.4.4,0,0,0-.019-.053C996.007,212.1,995.94,212.048,995.87,212Z" transform="translate(-962.857 -198.522)"/>
      <path id="Path_126" data-name="Path 126" d="M894.151,211.992c.144-.114.278-.233.433-.344l-.044-1.318-2.963-.031c-.48.441-.99,1.074-.707,1.665Z" transform="translate(-886.928 -197.294)"/>
      <path id="Path_127" data-name="Path 127" d="M916.493,282.761a4.739,4.739,0,0,1-2.328,2.3,6.311,6.311,0,0,1-2.541.239,29.708,29.708,0,0,1-8.662-1.218,30.571,30.571,0,0,0-3.884-1.371,15.175,15.175,0,0,0-4.83.047l-7.08.832c-2.089.244-4.417.427-6.084-.854-.954-.732-1.57-1.873-2.616-2.461a3.325,3.325,0,0,1-1.251-.832,2.079,2.079,0,0,1-.278-1.029c-.022-.291-.036-.583-.047-.874a23.5,23.5,0,0,0,.047,2.539,2.077,2.077,0,0,0,.277,1.029,3.324,3.324,0,0,0,1.251.832c1.046.588,1.665,1.728,2.616,2.461,1.665,1.282,4,1.11,6.084.855l7.08-.832a15.174,15.174,0,0,1,4.83-.047,31.383,31.383,0,0,1,3.884,1.371,29.393,29.393,0,0,0,8.662,1.218,6.361,6.361,0,0,0,2.541-.239,4.739,4.739,0,0,0,2.328-2.3,11.776,11.776,0,0,0,1.2-6.229A10.838,10.838,0,0,1,916.493,282.761Z" transform="translate(-876.877 -245.879)"/>
    </g>
    <path id="Path_128" data-name="Path 128" d="M937.56,179l3.884,3.607S938.115,181.219,937.56,179Z" transform="translate(-707.56 -142.776)" opacity="0.1"/>
  </g>
</svg>
