<svg xmlns="http://www.w3.org/2000/svg" xmlns:xlink="http://www.w3.org/1999/xlink" width="342" height="254.897" viewBox="0 0 342 254.897">
  <defs>
    <linearGradient id="linear-gradient" x1="0.5" y1="1" x2="0.5" gradientUnits="objectBoundingBox">
      <stop offset="0" stop-color="gray" stop-opacity="0.251"/>
      <stop offset="0.54" stop-color="gray" stop-opacity="0.122"/>
      <stop offset="1" stop-color="gray" stop-opacity="0.102"/>
    </linearGradient>
  </defs>
  <g id="undraw_studying_s3l7" transform="translate(-0.012 -0.057)">
    <path id="Path_10" data-name="Path 10" d="M406.849,208.65c-.061.362-.123.723-.19,1.085a133.13,133.13,0,0,1-11.079,35.091q-.262.542-.533,1.085a100.289,100.289,0,0,1-12.484,19.252,39.949,39.949,0,0,1-8.967,8.415c-4.811,3.068-10.437,4.314-15.965,5.335-5.745,1.062-11.564,1.938-17.369,2.906q-3.087.5-6.135,1.056c-5.609,1.014-11.176,2.186-16.611,3.739a86.345,86.345,0,0,0-19.375,7.97q-.736.42-1.456.862c-.481.291-.969.588-1.437.891s-.94.6-1.4.911l-.717.484c-.236.155-.468.323-.7.478-.691.471-1.372.969-2.054,1.447l-.026.019q-.673.484-1.34.969c-2.516,1.863-4.976,3.814-7.427,5.771l-1.547,1.237q-1.2.949-2.4,1.9c-.468.371-.943.739-1.414,1.108-.342.268-.681.536-1.03.8-1.747,1.347-3.517,2.664-5.322,3.923-.429.3-.865.6-1.292.894A68.1,68.1,0,0,1,257.1,322.6l-.052.023a45.54,45.54,0,0,1-6.1,2.1,36.495,36.495,0,0,1-3.591.778,31.736,31.736,0,0,1-9.736.168c-6.358-.9-12.316-3.875-18.658-4.87-13.084-2.031-25.791,4.521-38.1,9.665q-4.521,1.892-9.142,3.552-3.061,1.1-6.151,2.1a193.676,193.676,0,0,1-38.6,8.257,89.19,89.19,0,0,1-16.388.442,55.34,55.34,0,0,1-6.135-.8c-6.9-1.292-13.343-4.033-18.532-9.042-4.311-4.1-7.353-9.455-9.671-15.045q-1.4-3.368-2.464-6.891a76.853,76.853,0,0,1-2.509-11.247c-.126-.859-.239-1.721-.323-2.583q-.252-2.218-.375-4.456a77.177,77.177,0,0,1,2.3-23.573c2.2-8.522,5.867-16.682,7.482-25.284.068-.362.129-.723.191-1.085q.323-1.937.491-3.946c.814-10.521-2.335-20.818-4.821-31.132-.087-.362-.174-.723-.258-1.085q-.4-1.715-.765-3.433c-2.3-10.908-2.932-22.581-.888-33.467.065-.362.139-.727.213-1.085A54.134,54.134,0,0,1,82.06,151.8a65.385,65.385,0,0,1,14.208-15.032q3.923-3.132,8.115-5.861,3.013-1.957,6.135-3.7A102.258,102.258,0,0,1,165.5,114.284q1.508.077,3.01.207,1.576.136,3.142.323c12.216,1.411,24.1,4.908,35.918,8.735q5.938,1.937,11.857,3.875,2.635.859,5.267,1.7c8.606,2.716,17.353,5.167,26.182,7.014q3.071.646,6.135,1.179a145.014,145.014,0,0,0,21.5,2.215q4.2.1,8.4-.087,2.122-.1,4.246-.284c14.631-1.253,28.739-5.454,42.905-9.4,2.047-.572,4.1-1.14,6.135-1.689,2.693-.723,5.389-1.424,8.1-2.07,16.85-4.046,31.865-1.721,47.53,6.623,3.552,1.9,7.1,4.182,9.3,7.721s2.729,7.921,3.135,12.138c.575,6,.969,12.083,1.095,18.193,0,.362,0,.723.023,1.085A193.564,193.564,0,0,1,406.849,208.65Z" transform="translate(-70.44 -95.1)" fill="#10f" opacity="0.1"/>
    <path id="Path_12" data-name="Path 12" d="M272.214,209.026h.491a1.175,1.175,0,0,1-.584-.946h0c0-.749.917-1.359,2.038-1.359h14.257c1.12,0,2.038.61,2.038,1.359h0c0,.746-.917,1.359-2.038,1.359h-.475a1.179,1.179,0,0,1,.581.946c0,.646-.665,1.175-1.556,1.321h4.1c1.117,0,2.034.61,2.034,1.359s-.917,1.356-2.034,1.356H276.8c-1.117,0-2.034-.61-2.034-1.356,0-.646.665-1.175,1.556-1.321h-4.1c-1.117,0-2.034-.61-2.034-1.359S271.091,209.026,272.214,209.026Z" transform="translate(-205.673 -157.783)" fill="#6c63ff" opacity="0.1"/>
    <path id="Path_13" data-name="Path 13" d="M750.734,249.1h.478a1.179,1.179,0,0,1-.584-.949h0c0-.746.917-1.356,2.038-1.356h14.257c1.121,0,2.038.61,2.038,1.356h0c0,.749-.917,1.359-2.038,1.359h-.475a1.182,1.182,0,0,1,.581.949c0,.646-.665,1.172-1.556,1.318h4.1c1.117,0,2.034.613,2.034,1.359s-.917,1.359-2.034,1.359H755.323c-1.117,0-2.034-.61-2.034-1.359,0-.646.665-1.175,1.556-1.317h-4.111c-1.117,0-2.034-.614-2.034-1.359S749.624,249.1,750.734,249.1Z" transform="translate(-529.673 -184.913)" fill="#6c63ff" opacity="0.1"/>
    <path id="Path_14" data-name="Path 14" d="M204.484,420.559h.478a1.182,1.182,0,0,1-.581-.949h0c0-.746.914-1.359,2.034-1.359h14.257c1.121,0,2.038.614,2.038,1.359h0c0,.749-.917,1.359-2.038,1.359H220.2a1.182,1.182,0,0,1,.581.949c0,.646-.665,1.172-1.556,1.317h4.1c1.121,0,2.034.61,2.034,1.359s-.914,1.359-2.034,1.359h-14.26c-1.117,0-2.034-.614-2.034-1.359,0-.646.668-1.175,1.556-1.321h-4.1c-1.117,0-2.034-.61-2.034-1.356S203.367,420.559,204.484,420.559Z" transform="translate(-159.814 -301.007)" fill="#6c63ff" opacity="0.1"/>
    <path id="Path_15" data-name="Path 15" d="M671.172,713.44q-1.2.949-2.4,1.9c-.468.371-.943.739-1.414,1.108-.342.268-.681.536-1.03.8-1.747,1.347-3.517,2.664-5.322,3.923-.429.3-.865.6-1.292.894a68.1,68.1,0,0,1-11.476,6.323l-.052.023V713.44Z" transform="translate(-461.619 -500.875)" fill="#65617d"/>
    <path id="Path_16" data-name="Path 16" d="M521.417,366.285l.362-11.157c-.216-.168-.436-.323-.646-.478a59.469,59.469,0,0,0-.568-9.949c-1.46-11.157-10.937-11.4-13.611-9.1a6.456,6.456,0,0,1-1.153.794c.242-1.592.542-3.187.759-4.763,1.169-8.5-.646-18.061-7.24-23.553-2.761-2.3-6.135-3.707-9.167-5.628-5.431-3.426-9.723-8.486-15.216-11.822s-13.207-4.585-18-.3c-1.857,1.66-3.055,3.962-4.96,5.564-3.552,2.984-9.09,3.181-12.19,6.513h0c-.155.168-.3.339-.446.52-2.583,3.313-1.876,8.012-1.053,12.122.991,4.947.581,8.912,4.824,10.333.016.2.029.394.052.588a20.96,20.96,0,0,0,9.222,15.087l-.688.245c-1.834.646-3.484,1.272-4.54,1.7-3.875,1.579-12.032,3.636-12.032,3.636s-.194,2.325-.158,5.754c-2.719,2.955-7.256,8.147-8.589,11.225-1.937,4.489-12.884,17.344-15.8,19.284s-6.077,4.243-6.077,4.243-4.618,2.548-6.8,2.79a36.65,36.65,0,0,1-6.2-.73s-18.713-22.927-17.5-5.335,16.162,18.19,16.162,18.19l15.07-.242s8.144,1.091,11.79-1.937c3.113-2.583,19.246-16.756,24.428-23.185.119.132.239.262.365.388,0,0,2.063-2.667,2.309,0s-1.34,3.875-.488,4.844,3.4,4.366,3.523,5.7-3.4,6.781,2.551,10.915c.094.065.194.126.3.187,1.062,2.419,4.44,4.786,4.44,4.786l18.228-.242,34.393,2.667s1.024-.9,2.409-2.373c1.85,1.7,4.417,3.155,7.311,2.26,0,0,4.133-4.97,4.256-8.244,0,0-2.674-6.914-3.875-8.974s.852-6.549.852-6.549,1.456-4.366,2.309-4.366.242-2.906.242-2.906a3.533,3.533,0,0,1-.365-3.274A31.335,31.335,0,0,0,521.417,366.285Z" transform="translate(-275.931 -212.543)" fill="url(#linear-gradient)"/>
    <path id="Path_17" data-name="Path 17" d="M689.128,457.491,687.836,459h0l-5.218,6.077-6.817.413-10.911.672s-14.712-17.728-11.948-21.587a7.064,7.064,0,0,0,.969-4.963c-.026-.239-.061-.478-.1-.714a20.628,20.628,0,0,0-1.718-5.3l.362-.165.232-.107,12.865-5.871,3.184-1.453a8.594,8.594,0,0,0,.872,2.512c.061.123.129.245.2.362,4.388,7.266,18.461,2.671,18.461,2.671Z" transform="translate(-464.26 -306.261)" fill="#ee8e9e"/>
    <path id="Path_18" data-name="Path 18" d="M778.73,454.612a21.217,21.217,0,0,1-.814,6.3l-18.209,2.774-.681-4.727-2.7-18.668,2.532-2.532a6.759,6.759,0,0,0,5.79-1.447c2.651-2.293,12.057-2.051,13.5,9.042a61.4,61.4,0,0,1,.575,9.261Z" transform="translate(-534.839 -312.452)" fill="#ee8e9e"/>
    <path id="Path_19" data-name="Path 19" d="M790.852,615.209s4.1-4.944,4.221-8.2l-4.1-6.875-3.617-3.875L780.6,609.3S785.063,617.017,790.852,615.209Z" transform="translate(-551.272 -421.534)" fill="#dfe5ee"/>
    <path id="Path_20" data-name="Path 20" d="M790.852,615.209s4.1-4.944,4.221-8.2l-4.1-6.875-3.617-3.875L780.6,609.3S785.063,617.017,790.852,615.209Z" transform="translate(-551.272 -421.534)" opacity="0.1"/>
    <path id="Path_21" data-name="Path 21" d="M277.23,698.717c-.342.268-.681.536-1.03.8-1.747,1.347-3.517,2.664-5.322,3.923-.429.3-.865.6-1.292.894H166.578L136.1,703.244l-24.509-.207-6.135-.323L74.845,701.1a76.854,76.854,0,0,1-2.522-11.257c-.126-.859-.239-1.721-.323-2.583l33.444,1.854,6.135.345,54.986,3.068,6.151.342,79.223,4.424,6.1.342h.052Z" transform="translate(-71.488 -483.149)" fill="#d48a9b"/>
    <path id="Path_22" data-name="Path 22" d="M317.758,631.58a86.348,86.348,0,0,0-19.375,7.969c-.488.281-.969.568-1.456.862s-.969.588-1.437.891-.94.6-1.4.911l-.717.484-.7.478c-.691.475-1.372.969-2.054,1.447l-.026.019q-.673.484-1.34.969c-2.515,1.863-4.976,3.814-7.427,5.771q-.775.62-1.553,1.237l-2.39,1.9c-.468.371-.943.74-1.414,1.108-.342.268-.681.536-1.03.8l-18.083-.862H257.3l-6.1-.284-79.259-3.755-6.151-.294-54.986-2.612-6.135-.294-33.134-1.56c-.126-.859-.239-1.721-.323-2.583q-.252-2.219-.375-4.456l33.828-11.948L110.8,625.6l5.573-1.97,10.156.53,23.473,1.2h0l15.8.83,6.151.323,3.93.207h0l.94.052h0L209.9,628.5h0l.349.023h0l14.757.769h.265l1.476.074h0l5.031.265,6.29.323h0l2.073.11h0l.391.023,2.932.152h0l.836.042h0l2.8.149h0l1.114.061h.268l2.619.139,4.056.213h.019l1.259.065h.136l.752.042,1.847.1h0l1.615.084h.016l1.812.094h.029l1.372.074h0l1.053.055,3.736.2h0l.672.035h.232l.323.019h0l1.095.058h0l.491.026h0l3.81.2h.349l5.625-.048h.039l21.386-.174h2.115l6.885-.055h1.027Z" transform="translate(-70.702 -440.066)" fill="#efc6cd"/>
    <path id="Path_23" data-name="Path 23" d="M387.406,642.037l1.989,10.582,54.081-.814s4.069,1.175,3.978-2.08c0,0,8.231-7.779,49.922,1.266L481.371,638.42l-43.755,2.351-50.736-1.356Z" transform="translate(-284.689 -450.08)" fill="#6c63ff"/>
    <path id="Path_24" data-name="Path 24" d="M391.59,640.556l1.9,11.486s46.5-1.356,53.81-.09l-5.525-10.492S413.658,638.839,391.59,640.556Z" transform="translate(-287.878 -451.132)" fill="#fff"/>
    <path id="Path_25" data-name="Path 25" d="M391.59,640.556l1.9,11.486s46.5-1.356,53.81-.09l-5.525-10.492S413.658,638.839,391.59,640.556Z" transform="translate(-287.878 -451.132)" opacity="0.1"/>
    <path id="Path_26" data-name="Path 26" d="M393.74,640.512l1.873,10.682s45.909-1.259,53.142-.084l-5.448-9.755S415.53,638.914,393.74,640.512Z" transform="translate(-289.334 -451.129)" fill="#fff"/>
    <path id="Path_27" data-name="Path 27" d="M396.35,641.593l1.824,9.991s44.9-1.179,51.989-.077l-5.328-9.129S417.665,640.085,396.35,641.593Z" transform="translate(-291.101 -451.881)" opacity="0.1"/>
    <path id="Path_28" data-name="Path 28" d="M397.47,640.477l1.834,10.01s44.9-1.179,51.989-.078l-5.341-9.138S418.785,638.982,397.47,640.477Z" transform="translate(-291.86 -451.13)" fill="#fff"/>
    <path id="Path_29" data-name="Path 29" d="M285.541,557.41s2.351,3.071-1.082,7.711-6.268,8.554-5.121,11.447c0,0,5.167-8.615,9.4-8.719S290.181,562.59,285.541,557.41Z" transform="translate(-211.698 -395.23)" fill="#6c63ff"/>
    <path id="Path_30" data-name="Path 30" d="M285.819,557.41a3.732,3.732,0,0,1,.481.969c4.114,4.844,6.306,9.365,2.351,9.461-3.684.1-8.1,6.691-9.161,8.357q.055.187.126.378s5.167-8.615,9.4-8.719S290.459,562.59,285.819,557.41Z" transform="translate(-211.977 -395.23)" opacity="0.1"/>
    <path id="Path_31" data-name="Path 31" d="M311.482,568.086c0,1.078-.123,1.957-.271,1.957s-.271-.878-.271-1.957.152-.575.3-.575S311.482,567,311.482,568.086Z" transform="translate(-233.271 -401.989)" fill="#ffd037"/>
    <path id="Path_32" data-name="Path 32" d="M313.377,571.968c-.949.52-1.776.833-1.847.7s.646-.646,1.589-1.175.575-.142.646,0S314.326,571.451,313.377,571.968Z" transform="translate(-233.667 -404.582)" fill="#ffd037"/>
    <path id="Path_33" data-name="Path 33" d="M249.6,557.41s-2.351,3.071,1.085,7.711,6.265,8.554,5.121,11.447c0,0-5.183-8.615-9.4-8.719S244.962,562.59,249.6,557.41Z" transform="translate(-188.17 -395.23)" fill="#6c63ff"/>
    <path id="Path_34" data-name="Path 34" d="M249.6,557.41a3.876,3.876,0,0,0-.481.969c-4.114,4.844-6.306,9.365-2.351,9.461,3.684.1,8.105,6.691,9.164,8.357a3.886,3.886,0,0,1-.126.378s-5.183-8.615-9.4-8.719S244.962,562.59,249.6,557.41Z" transform="translate(-188.17 -395.23)" opacity="0.1"/>
    <path id="Path_35" data-name="Path 35" d="M247.13,568.086c0,1.078.123,1.957.271,1.957s.271-.878.271-1.957-.152-.575-.3-.575S247.13,567,247.13,568.086Z" transform="translate(-190.066 -401.989)" fill="#ffd037"/>
    <path id="Path_36" data-name="Path 36" d="M241.283,571.968c.949.52,1.779.833,1.85.7s-.646-.646-1.589-1.175-.575-.142-.646,0S240.333,571.451,241.283,571.968Z" transform="translate(-185.717 -404.582)" fill="#ffd037"/>
    <path id="Path_37" data-name="Path 37" d="M265.987,600.9l-.116.969-.165,1.353-.068.565-.165,1.356-.071.565-.168,1.356-1.879,15.41c-.168,1.376-2.415,2.448-5.128,2.448h-9.758c-2.712,0-4.957-1.072-5.125-2.448l-1.883-15.41-.165-1.356-.068-.565-.168-1.356-.068-.565-.165-1.353-.119-.969c-.094-.778,1.121-1.434,2.658-1.434h19.975C264.876,599.47,266.094,600.125,265.987,600.9Z" transform="translate(-185.715 -423.708)" fill="#65617d"/>
    <path id="Path_38" data-name="Path 38" d="M195.7,551.59l-.165,1.356H170.815l-.165-1.356Z" transform="translate(-115.537 -373.435)" fill="#9d9cb5"/>
    <path id="Path_39" data-name="Path 39" d="M195.957,557.54l-.165,1.356H171.538l-.168-1.356Z" transform="translate(-116.024 -377.464)" fill="#9d9cb5"/>
    <path id="Path_40" data-name="Path 40" d="M196.215,563.49l-.165,1.353H172.265l-.165-1.353Z" transform="translate(-116.518 -381.492)" fill="#9d9cb5"/>
    <path id="Path_41" data-name="Path 41" d="M398.634,595.407s-6.271-6.029-6.029,1.808S398.634,595.407,398.634,595.407Z" transform="translate(-288.561 -419.457)" fill="#ee8e9e"/>
    <path id="Path_42" data-name="Path 42" d="M441.945,507.47a9.148,9.148,0,0,1-1.866,2.877c-5.438,6.549-20.909,20.16-23.941,22.685-3.617,3.016-11.7,1.938-11.7,1.938l-14.951.242s-14.831-.6-16.039-18.083,17.363,5.305,17.363,5.305a36.261,36.261,0,0,0,6.151.723c2.17-.239,6.752-2.771,6.752-2.771s3.135-2.293,6.029-4.22,13.746-14.712,15.677-19.175c1.224-2.832,5.167-7.463,7.889-10.466,1.563-1.728,2.722-2.906,2.722-2.906S442.787,503.731,441.945,507.47Z" transform="translate(-275.559 -345.267)" fill="#ee8e9e"/>
    <path id="Path_43" data-name="Path 43" d="M567.581,507.443a9.149,9.149,0,0,1-1.866,2.877c-5.49-5.59-6.636-16.743-6.765-23.834,1.563-1.728,2.722-2.906,2.722-2.906S568.424,503.7,567.581,507.443Z" transform="translate(-401.196 -345.24)" opacity="0.1"/>
    <path id="Path_44" data-name="Path 44" d="M687.833,474.359h0l-5.215,6.077-6.817.413-10.911.672s-14.712-17.728-11.948-21.587a7.064,7.064,0,0,0,.969-4.963c-.026-.239-.061-.478-.1-.714a20.629,20.629,0,0,0-1.718-5.3l.362-.165.232-.107a23.163,23.163,0,0,1,1.182,4.944c.035.229.068.468.1.714.113.872.216,1.841.323,2.906.84,9.758,6.978,13.43,9.749,14.6a28.111,28.111,0,0,1,2.609,1.263A13.921,13.921,0,0,0,675.4,474.7c6.839-.9,12.416-5.867,12.416-5.867l.029,4.892Z" transform="translate(-464.26 -321.617)" opacity="0.1"/>
    <path id="Path_45" data-name="Path 45" d="M626.3,509.069s-44.856-.123-50.768-4.22-2.409-9.526-2.532-10.853-2.651-4.7-3.494-5.67.723-2.17.481-4.821-2.289,0-2.289,0c-8.444-8.564-6.636-30.267-6.636-30.267s8.073-2.047,11.948-3.62c1.049-.426,2.683-1.033,4.521-1.689l.681-.245c4.737-1.7,10.369-3.61,10.369-3.61s1.082-.765,2.17,1.524a20.125,20.125,0,0,1,1.4,5.457c.036.229.068.468.1.714.113.872.216,1.841.323,2.906.84,9.758,6.978,13.43,9.749,14.6a28.094,28.094,0,0,1,2.609,1.263,13.921,13.921,0,0,0,8.751,1.582c6.839-.9,12.416-5.867,12.416-5.867l.029,4.892.084,14.7Z" transform="translate(-402.513 -318.407)" fill="#dfe5ee"/>
    <path id="Path_46" data-name="Path 46" d="M655.015,583.125l-.723,4.582s-17.847,4.459-24.838,5.787-22.068-.362-23.153,2.532,4.582,6.875,4.582,6.875l18.083-.242,34.125,2.654s13.023-11.457,8.8-19.417S655.015,583.125,655.015,583.125Z" transform="translate(-433.163 -411.516)" fill="#ee8e9e"/>
    <path id="Path_47" data-name="Path 47" d="M629.234,474.58s-8.2,6.752-6.633,10.01S629.234,474.58,629.234,474.58Z" transform="translate(-444.158 -339.147)" opacity="0.1"/>
    <path id="Path_48" data-name="Path 48" d="M595.714,512.29s-8.321,14.35-7.837,15.435,2.774,4.944,2.651,2.05S595.714,512.29,595.714,512.29Z" transform="translate(-420.768 -364.68)" opacity="0.1"/>
    <path id="Path_49" data-name="Path 49" d="M613.739,520.14s-1.937,8.922-3.859,12.661S613.739,520.14,613.739,520.14Z" transform="translate(-435.415 -369.995)" opacity="0.1"/>
    <path id="Path_50" data-name="Path 50" d="M642.893,428.914a20.86,20.86,0,0,1-15.855,10.727H627a20.825,20.825,0,0,1-14.68-3.843c4.844-1.75,11.05-3.856,11.05-3.856s1.082-.765,2.17,1.524l16.281-7.427a8.631,8.631,0,0,0,1.072,2.874Z" transform="translate(-437.332 -306.281)" opacity="0.1"/>
    <path id="Path_51" data-name="Path 51" d="M627.4,358.047a20.766,20.766,0,0,1-2.745,10.353,21.013,21.013,0,0,1-3.11,4.14,20.773,20.773,0,0,1-12.645,6.252h-.042a20.371,20.371,0,0,1-2.318.132,20.86,20.86,0,0,1-20.728-18.51,20.244,20.244,0,0,1-.132-2.354,20.86,20.86,0,1,1,41.72,0Z" transform="translate(-419.294 -246.129)" fill="#ee8e9e"/>
    <path id="Path_52" data-name="Path 52" d="M753.7,502.648l1.938-2.906s10.611-12.661,20.989-4.582l-.362,11.1a29.418,29.418,0,0,1-1.208,5.167,3.529,3.529,0,0,0,.362,3.258s.6,2.906-.239,2.906-2.293,4.34-2.293,4.34-2.051,4.463-.843,6.513,3.859,8.922,3.859,8.922-4.22-2.532-5.428-6.752c0,0-10.249-7.96-18.209-2.906Z" transform="translate(-532.09 -351.256)" opacity="0.1"/>
    <path id="Path_53" data-name="Path 53" d="M784.384,490.736a21.214,21.214,0,0,1-.814,6.3l-18.209,2.774-.681-4.727C767.063,492.592,775.73,484.688,784.384,490.736Z" transform="translate(-540.493 -348.576)" opacity="0.1"/>
    <path id="Path_54" data-name="Path 54" d="M753.7,500.648l1.938-2.906s10.611-12.661,20.989-4.582l-.362,11.1a29.418,29.418,0,0,1-1.208,5.167,3.529,3.529,0,0,0,.362,3.258s.6,2.906-.239,2.906-2.293,4.34-2.293,4.34-2.051,4.463-.843,6.513,3.859,8.922,3.859,8.922-4.22-2.532-5.428-6.752c0,0-10.249-7.96-18.209-2.906Z" transform="translate(-532.09 -349.902)" fill="#dfe5ee"/>
    <path id="Path_55" data-name="Path 55" d="M774.778,496.61s-17.482,10.734-16.64,20.147C758.138,516.757,767.906,499.5,774.778,496.61Z" transform="translate(-536.043 -354.063)" opacity="0.1"/>
    <path id="Path_56" data-name="Path 56" d="M642.79,398.851l.084,14.7c-3.307.149-6.423-.281-8.887-2.422a10.663,10.663,0,0,1-3.229-5.78,20.474,20.474,0,0,1-.42-5.467.3.3,0,0,1,0-.055c.2-4.059,1.137-8.118.646-12.151s-2.935-8.289-6.926-9.138a4.182,4.182,0,0,1-2.235-.811,3.241,3.241,0,0,1-.523-2.545l.116-1.508c.029-.388.042-.772.042-1.156a14.8,14.8,0,0,0-11.948-14.512l-.129-.023a8.16,8.16,0,0,0-3.416-.19c-2.138.494-3.52,2.567-5.49,3.552-3.778,1.886-10.078-.178-14.034-.827-.258-.042-.5-.09-.74-.145a20.266,20.266,0,0,1-.132-2.354,20.86,20.86,0,1,1,38.975,10.353c.061.123.129.245.2.362,4.388,7.266,18.461,2.671,18.461,2.671l.846,25.927Z" transform="translate(-419.22 -246.106)" opacity="0.1"/>
    <path id="Path_57" data-name="Path 57" d="M589.922,329.666c1.957-.988,3.339-3.061,5.49-3.552a8.236,8.236,0,0,1,3.42.187l.129.026A14.812,14.812,0,0,1,610.854,342l-.116,1.508a3.193,3.193,0,0,0,.526,2.541,4.081,4.081,0,0,0,2.231.807c3.991.853,6.436,5.086,6.926,9.142s-.458,8.128-.646,12.2.562,8.573,3.642,11.25c4.844,4.2,12.206,1.808,18.616,1.424-2.835,0-4.96-2.926-5.115-5.754s1.1-5.522,2.309-8.073,2.412-5.3,2.144-8.118c-.368-3.875-3.423-6.978-4.592-10.708-1.363-4.34-.048-9,.568-13.511,1.159-8.447-.646-17.957-7.185-23.418-2.738-2.283-6.087-3.688-9.1-5.6-5.393-3.42-9.645-8.435-15.1-11.761s-13.1-4.56-17.86-.3c-1.841,1.65-3.029,3.94-4.921,5.531-3.7,3.116-9.574,3.174-12.539,7-2.551,3.29-1.86,7.963-1.043,12.048,1.088,5.448.475,9.687,6.3,10.656C579.844,329.491,586.141,331.555,589.922,329.666Z" transform="translate(-407.908 -214.786)" fill="#603556"/>
    <path id="Path_58" data-name="Path 58" d="M637.806,409.106c-4.666.572-9.29.865-12.687-2.08-3.081-2.677-3.839-7.172-3.642-11.25s1.14-8.154.646-12.206-2.935-8.286-6.926-9.138a4.142,4.142,0,0,1-2.231-.807,3.219,3.219,0,0,1-.526-2.545l.116-1.508A14.809,14.809,0,0,0,600.661,353.9l-.129-.026a8.236,8.236,0,0,0-3.42-.187c-2.138.494-3.52,2.583-5.49,3.552-3.781,1.889-10.075-.174-14.037-.823-5.812-.953-5.205-5.2-6.3-10.656-.61-3.048-1.15-6.426-.323-9.313a5.073,5.073,0,0,0-.446.52c-2.551,3.29-1.86,7.963-1.043,12.048,1.088,5.448.475,9.687,6.3,10.656,3.959.646,10.256,2.712,14.037.823,1.957-.988,3.339-3.061,5.49-3.552a8.237,8.237,0,0,1,3.42.187l.129.026a14.812,14.812,0,0,1,11.893,15.671l-.116,1.508a3.194,3.194,0,0,0,.526,2.541,4.082,4.082,0,0,0,2.231.807c3.991.853,6.436,5.086,6.926,9.142s-.455,8.128-.646,12.2.562,8.573,3.642,11.25c4.844,4.2,12.206,1.808,18.616,1.424A4.911,4.911,0,0,1,637.806,409.106Z" transform="translate(-407.819 -245.621)" opacity="0.1"/>
    <path id="Path_59" data-name="Path 59" d="M370.632,578.985l19.908-7.427a1.9,1.9,0,0,1,2.438,1.111h0a1.9,1.9,0,0,1-1.111,2.438l-19.908,7.427-4.269-.426Z" transform="translate(-271.696 -404.728)" fill="#5c5c8e"/>
    <path id="Path_60" data-name="Path 60" d="M392.35,572.686h0a1.9,1.9,0,0,1-1.114,2.438l-19.92,7.453-3.2-.323-.462.491,4.269.426,19.908-7.427a1.9,1.9,0,0,0,1.111-2.438h0a1.9,1.9,0,0,0-.775-.946A2.2,2.2,0,0,1,392.35,572.686Z" transform="translate(-271.669 -405.352)" fill="#fff" opacity="0.1"/>
    <path id="Path_61" data-name="Path 61" d="M300.2,539.52l1.324,3.549-3.5-.352-.765-.077,1.046-1.111Z" transform="translate(-201.263 -365.263)" fill="#efc8c4"/>
    <path id="Path_62" data-name="Path 62" d="M368.757,601a.846.846,0,0,1,.207.223.323.323,0,0,1,0,.346.687.687,0,0,1-.19.139.646.646,0,0,0-.284.478l-.769-.074Z" transform="translate(-271.716 -424.744)" fill="#727a9c"/>
    <path id="Path_63" data-name="Path 63" d="M569.6,640.74s17.244-3.62,46.176.969l-11.334-8.318-20.621-4.22-14.589,3.875Z" transform="translate(-408.156 -443.817)" fill="#fff"/>
    <path id="Path_64" data-name="Path 64" d="M569.6,640.74s17.244-3.62,46.176.969l-11.334-8.318-20.621-4.22-14.589,3.875Z" transform="translate(-408.156 -443.817)" opacity="0.1"/>
    <path id="Path_65" data-name="Path 65" d="M552.572,646.735s8.683-23.489,53.281.074l-16.007-10.3s-38.346-10.595-42.776,1.615Z" transform="translate(-393.152 -445.898)" fill="#fff"/>
    <path id="Path_66" data-name="Path 66" d="M552.525,643.141s8.683-25.113,53.281.452L589.8,632.42s-38.359-12.671-42.8.591Z" transform="translate(-393.104 -442.321)" opacity="0.1"/>
    <path id="Path_67" data-name="Path 67" d="M552.572,642.95s8.683-25.484,53.281.081l-16.007-11.173s-38.346-12.31-42.776.969Z" transform="translate(-393.152 -442.12)" fill="#fff"/>
    <path id="Path_68" data-name="Path 68" d="M552.545,640.785s8.683-28.323,53.281.436l-16.02-12.571s-38.346-12.917-42.776,1.989Z" transform="translate(-393.125 -439.948)" opacity="0.1"/>
    <path id="Path_69" data-name="Path 69" d="M552.545,640.01s8.683-28.668,53.281.09l-16.02-12.571s-38.346-12.917-42.776,1.989Z" transform="translate(-393.125 -439.19)" fill="#fff"/>
    <path id="Path_70" data-name="Path 70" d="M967.776,668.71s-10.7,11.467-1.069,17.037a2.673,2.673,0,0,0,3.058.723s-.607-.539.61-1.579a7.224,7.224,0,0,0,1.146-1.259,3.552,3.552,0,0,0,.665-2.151h0s1.4-4.55-3.052-10.456c0,0-.4-1.976-.746-2.193l-.814,2.755a4.743,4.743,0,0,1,2.813,2.076s-2.693-2.115-2.955-1.673c-.052.09-.365,1.482-.365,1.482s3.552.917,4.663,3.358c0,0-2.871-2.948-4.786-2.832l-.349,2.125s3.8.788,5.167,3.52c0,0-3.106-2.98-5.218-3.048l-.061,2.134s3.691.84,4.818,3.119c0,0-3.936-3.077-4.8-2.629a10.551,10.551,0,0,0,.323,2.48s2.635.646,3.171,2.047c0,0-2.848-1.779-3.094-1.508a11.108,11.108,0,0,0,1.831,3.62,8.033,8.033,0,0,1-2.222-3.481,4.43,4.43,0,0,0-.536,2.477s-1.056-1.169.358-3.094a10.2,10.2,0,0,1-.388-2.319,9.645,9.645,0,0,0-2.089,3.229s-.323-1.912,2.086-3.781v-2.151s-2.319,2.134-2.8,3.455c0,0-.032-2,2.845-3.994l.323-2.089a16.345,16.345,0,0,0-2.987,3.042s.368-1.866,3.1-3.636l.378-1.369s-1.537,1.259-1.937,1.66-.552.323-.552.323a6.781,6.781,0,0,1,2.648-2.564A15.425,15.425,0,0,0,967.776,668.71Z" transform="translate(-674.559 -470.589)" fill="#6c63ff" opacity="0.1"/>
    <path id="Path_71" data-name="Path 71" d="M1107,90.91s-14.3,6.458-7.559,15.3a2.676,2.676,0,0,0,2.541,1.85s-.352-.733,1.172-1.224a7.072,7.072,0,0,0,1.543-.72,3.551,3.551,0,0,0,1.443-1.728h0s3.048-3.655,1.217-10.821c0,0,.391-1.979.158-2.312l-1.815,2.228a4.74,4.74,0,0,1,1.8,3s-1.666-2.99-2.08-2.68c-.084.061-.907,1.224-.907,1.224s2.906,2.215,3.006,4.9c0,0-1.511-3.83-3.326-4.463l-1.14,1.828s3.2,2.193,3.416,5.241c0,0-1.718-3.946-3.639-4.824l-.882,1.937s3.084,2.2,3.229,4.737c0,0-2.444-4.359-3.413-4.275a10.028,10.028,0,0,0-.646,2.412s2.176,1.615,2.138,3.113c0,0-1.937-2.738-2.26-2.583a11.063,11.063,0,0,0,.294,4.046,8.015,8.015,0,0,1-.707-4.069,4.42,4.42,0,0,0-1.45,2.08s-.523-1.489,1.524-2.719a10.129,10.129,0,0,1,.536-2.286,9.639,9.639,0,0,0-3.168,2.16s.436-1.889,3.384-2.683l.84-1.976s-2.961,1.072-3.914,2.105c0,0,.743-1.86,4.166-2.583l1.1-1.8a16.5,16.5,0,0,0-3.93,1.653s1.063-1.576,4.266-2.157l.875-1.117s-1.905.568-2.438.781-.646.087-.646.087a6.781,6.781,0,0,1,3.452-1.343A16.958,16.958,0,0,0,1107,90.91Z" transform="translate(-765.933 -79.369)" fill="#6c63ff" opacity="0.1"/>
    <path id="Path_72" data-name="Path 72" d="M677.114,103.29s-21.487,6.135-11.04,15.267a4.144,4.144,0,0,0,3.9,1.937s-.555-.749,1.744-1.2a13.655,13.655,0,0,0,2.318-.685,4.136,4.136,0,0,0,2.138-1.708h0s4.521-3.617,1.553-10.908c0,0,.539-1.989.178-2.331l-2.687,2.2s2.583,1.327,2.8,3.081c0,0-2.606-3.064-3.229-2.764-.126.061-1.343,1.211-1.343,1.211s4.482,2.319,4.685,5.034c0,0-2.39-3.91-5.167-4.6l-1.679,1.815s4.908,2.3,5.312,5.389c0,0-2.706-4.033-5.638-4.973l-1.292,1.937s4.727,2.306,5.037,4.876c0,0-3.82-4.472-5.286-4.417a7.57,7.57,0,0,0-.92,2.425s3.339,1.7,3.323,3.2c0,0-3.016-2.822-3.513-2.674,0,0-.342,2.658.555,4.1a6.137,6.137,0,0,1-1.182-4.13,4.855,4.855,0,0,0-2.138,2.06s-.833-1.514,2.234-2.7c0,0,.391-2.06.749-2.3a15.8,15.8,0,0,0-4.737,2.1s.607-1.9,5.05-2.622l1.221-1.976s-4.456,1.007-5.871,2.025c0,0,1.075-1.86,6.242-2.506l1.615-1.792a31.772,31.772,0,0,0-5.909,1.566s1.566-1.566,6.4-2.067l1.292-1.1s-2.871.523-3.672.723-.969.071-.969.071a12.72,12.72,0,0,1,5.167-1.266S677.3,103.426,677.114,103.29Z" transform="translate(-471.788 -87.752)" fill="#6c63ff" opacity="0.1"/>
    <path id="Path_73" data-name="Path 73" d="M893.122,806.964s10.818-11.363,1.237-17.027a2.677,2.677,0,0,0-3.052-.756s.6.546-.623,1.576A7.288,7.288,0,0,0,889.525,792a3.53,3.53,0,0,0-.685,2.144h0s-1.45,4.537,2.948,10.485c0,0,.384,1.979.723,2.2l.843-2.748a4.741,4.741,0,0,1-2.793-2.1s2.671,2.138,2.935,1.7c.055-.09.381-1.476.381-1.476s-3.552-.969-4.631-3.4c0,0,2.842,2.977,4.76,2.877l.368-2.122s-3.791-.823-5.138-3.552c0,0,3.077,3.01,5.189,3.1l.081-2.138s-3.684-.891-4.8-3.184c0,0,3.907,3.119,4.773,2.677a9.613,9.613,0,0,0-.323-2.48s-2.628-.691-3.152-2.08c0,0,2.832,1.808,3.077,1.537a11.079,11.079,0,0,0-1.8-3.636,8.03,8.03,0,0,1,2.189,3.5,4.414,4.414,0,0,0,.559-2.47s1.046,1.182-.388,3.09a10.212,10.212,0,0,1,.365,2.322,9.673,9.673,0,0,0,2.118-3.194s.323,1.915-2.122,3.759l-.032,2.151s2.338-2.112,2.829-3.429c0,0,0,2.005-2.884,3.969l-.323,2.086a16.387,16.387,0,0,0,3.016-3.013s-.388,1.86-3.136,3.6l-.391,1.366s1.55-1.243,1.963-1.64.555-.323.555-.323a6.759,6.759,0,0,1-2.674,2.538A16.56,16.56,0,0,0,893.122,806.964Z" transform="translate(-624.405 -552.01)" fill="#6c63ff" opacity="0.1"/>
    <path id="Path_74" data-name="Path 74" d="M575.85,55.729s1.844,15.577,12.319,11.819a2.678,2.678,0,0,0,2.528-1.87s-.807.116-.814-1.485a7.232,7.232,0,0,0-.223-1.689,3.526,3.526,0,0,0-1.211-1.9h0s-2.57-4.011-9.968-4.4c0,0-1.77-.969-2.157-.846l1.579,2.4a4.728,4.728,0,0,1,3.4-.807s-3.352.691-3.181,1.175c.032.1.891,1.234.891,1.234s3.019-2.131,5.6-1.4c0,0-4.1.284-5.254,1.824l1.379,1.64s3.055-2.4,6.029-1.682c0,0-4.282.452-5.7,2.018l1.608,1.427s3.022-2.28,5.49-1.666c0,0-4.9,1.02-5.109,1.967a10.33,10.33,0,0,0,2.109,1.35s2.209-1.586,3.61-1.1c0,0-3.2,1.027-3.148,1.389a11.1,11.1,0,0,0,3.946.936,8.194,8.194,0,0,1-4.091-.549,4.428,4.428,0,0,0,1.547,2.009s-1.576.048-2.134-2.26a10.291,10.291,0,0,1-2.018-1.2,9.666,9.666,0,0,0,1.108,3.668s-1.673-.969-1.543-4.033l-1.615-1.4s.132,3.148.83,4.369c0,0-1.55-1.269-1.214-4.753l-1.385-1.592a16.406,16.406,0,0,0,.391,4.243s-1.185-1.485-.772-4.715l-.8-1.172s-.029,1.986,0,2.561-.11.63-.11.63a6.781,6.781,0,0,1-.252-3.691A16.487,16.487,0,0,0,575.85,55.729Z" transform="translate(-412.638 -55.29)" fill="#6c63ff" opacity="0.1"/>
    <path id="Path_75" data-name="Path 75" d="M785.2,733.671s-15.119-4.2-15.6,6.923a2.679,2.679,0,0,0,.772,3.048s.2-.788,1.682-.191a7.231,7.231,0,0,0,1.647.436,3.53,3.53,0,0,0,2.215-.407h0s4.682-.859,7.86-7.537c0,0,1.566-1.269,1.615-1.676l-2.819.552a4.74,4.74,0,0,1-.542,3.455s.646-3.365.119-3.391c-.107,0-1.482.358-1.482.358s.827,3.572-.823,5.687c0,0,1.292-3.907.3-5.554l-2.047.675s1.059,3.733-.73,6.213c0,0,1.208-4.13.291-6.035l-1.918.933s.969,3.662-.539,5.716c0,0,.911-4.915.113-5.473a10.506,10.506,0,0,0-2.044,1.44s.646,2.645-.349,3.759c0,0,.258-3.349-.094-3.439a11.052,11.052,0,0,0-2.364,3.3,8.029,8.029,0,0,1,2.06-3.578,4.435,4.435,0,0,0-2.444.668s.549-1.476,2.906-1.111a10.12,10.12,0,0,1,1.876-1.414,9.6,9.6,0,0,0-3.817-.368s1.544-1.175,4.317.1l1.912-.969s-2.964-1.069-4.356-.885c0,0,1.76-.969,4.844.675l2-.681a16.426,16.426,0,0,0-4.075-1.243s1.824-.533,4.656,1.072l1.389-.3s-1.828-.781-2.373-.969-.542-.323-.542-.323a6.782,6.782,0,0,1,3.5,1.162A16.71,16.71,0,0,0,785.2,733.671Z" transform="translate(-543.691 -514.048)" fill="#6c63ff" opacity="0.1"/>
  </g>
</svg>
